<?xml version="1.0" encoding="UTF-8" standalone="no"?>
<!-- Created with Inkscape (http://www.inkscape.org/) -->

<svg
   version="1.1"
   id="svg1"
   width="162.88"
   height="162.88"
   viewBox="0 0 162.88 162.88"
   xmlns="http://www.w3.org/2000/svg"
   xmlns:svg="http://www.w3.org/2000/svg">
  <defs
     id="defs1" />
  <g
     id="g1">
    <path
       style="fill:#000000"
       d="m 72.640002,133.85772 c 0,-0.12167 1.44,-1.68456 3.2,-3.47308 1.76,-1.78852 3.2,-3.50296 3.2,-3.80986 0,-0.56307 -1.743638,-2.41478 -2.273841,-2.41478 -0.157387,0 -0.286159,-0.27887 -0.286159,-0.61972 0,-0.46169 0.258925,-0.6453 1.015357,-0.72 1.470512,-0.14523 1.432308,-0.67193 -0.125479,-1.72991 -0.753433,-0.5117 -1.56352,-1.11372 -1.800195,-1.33783 -0.236674,-0.2241 -0.8447,-0.62174 -1.351169,-0.88365 -0.506469,-0.2619 -1.448921,-0.83455 -2.094338,-1.27254 -1.908357,-1.29504 -3.569604,-0.8494 -3.179924,0.85304 0.0945,0.41284 0.223067,1.49012 0.285713,2.39395 0.06265,0.90384 0.453363,2.60491 0.868259,3.78015 0.597168,1.69155 0.66819,2.19006 0.340842,2.39237 -0.259269,0.16024 -0.47853,1.25683 -0.587816,2.93985 -0.174504,2.68741 -0.701762,4.64255 -0.721519,2.6755 -0.01064,-1.05882 -0.456031,-1.82128 -2.313656,-3.96066 -0.673105,-0.7752 -1.168292,-1.465 -1.100415,-1.53287 0.157009,-0.15701 -0.958327,-1.41306 -4.633148,-5.21768 -1.614959,-1.672 -2.997531,-2.86497 -3.072382,-2.65105 -0.143196,0.40924 0.191347,0.93291 4.8623,7.61105 1.600316,2.288 3.223838,4.7 3.607826,5.36 0.757381,1.30179 0.467531,1.6795 -0.341411,0.4449 -0.272118,-0.4153 -0.68468,-0.95678 -0.916803,-1.20329 -1.762287,-1.87149 -8.665417,-11.54575 -9.707966,-13.60504 -0.685176,-1.3534 -2.767686,-3.28838 -3.55984,-3.30766 -0.483816,-0.0118 -0.8106,-0.8963 -0.420261,-1.13754 0.817279,-0.50511 0.204908,-0.84609 -1.213975,-0.67596 -1.158059,0.13885 -1.710496,0.4065 -2.320001,1.12403 -1.265151,1.48938 -2.88,3.75816 -2.88,4.04626 0,0.14469 0.9,1.22897 2,2.40952 2.179645,2.33926 2.8,3.07377 2.8,3.31524 0,0.0866 0.440991,0.81088 0.97998,1.60951 1.027936,1.52312 3.64022,6.38546 4.147756,7.72038 0.16728,0.43998 0.173389,0.77965 0.01402,0.77965 -0.155322,0 -1.037914,-1.476 -1.961315,-3.28 -0.923402,-1.804 -2.233148,-4.10067 -2.910547,-5.10372 -1.913288,-2.83307 -5.431439,-6.70881 -5.919742,-6.52143 C 43.95448,118.97599 43.84,118.68193 43.84,117.74996 c 0,-0.69848 -0.144,-1.26996 -0.32,-1.26996 -0.176,0 -0.321464,0.18 -0.323254,0.4 -0.0018,0.22 -0.577192,0.64105 -1.27867,0.93567 -0.770537,0.32362 -1.3948,0.84968 -1.577006,1.32892 -0.165876,0.43628 -0.454475,0.88773 -0.641331,1.00321 -0.429469,0.26543 -0.432426,-0.0167 -0.0085,-0.80883 0.377105,-0.70463 0.221321,-0.76596 -0.697115,-0.27442 -0.361094,0.19325 -0.567859,0.54239 -0.470879,0.79511 0.230547,0.6008 -0.707765,1.06676 -3.607245,1.79132 -3.300347,0.82475 -3.988793,1.30506 -6.713571,4.68396 -2.279273,2.82645 -3.107364,3.53505 -2.258334,1.93247 0.770059,-1.45352 4.146889,-5.34175 5.174328,-5.95795 0.572856,-0.34357 2.030256,-0.88564 3.238665,-1.2046 l 2.197109,-0.57994 -0.250246,-2.74246 c -0.137636,-1.50835 -0.253973,-4.68646 -0.258528,-7.06246 -0.0071,-3.69447 0.120783,-4.8256 0.88305,-7.81177 0.490232,-1.92048 0.966495,-3.720482 1.058363,-4.000005 0.227564,-0.692404 -3.701923,5.137545 -4.964177,7.365065 -1.423005,2.51119 -2.622679,5.83937 -2.622679,7.27594 0,2.64827 1.045603,4.82232 3.04,6.32087 0.563649,0.42352 0.520478,0.42315 -0.361883,-0.003 -1.544173,-0.74597 -2.589859,-2.22042 -3.009986,-4.24416 -0.53948,-2.59866 -0.197099,-4.3013 1.597208,-7.94283 1.357665,-2.75536 2.784118,-5.0569 8.425401,-13.594112 0.521205,-0.788763 0.971619,-1.580763 1.00092,-1.76 0.0293,-0.179237 0.470644,-1.032574 0.980762,-1.896304 0.883545,-1.496017 1.767578,-4.176972 1.767578,-5.360433 0,-0.303258 0.16688,-0.654515 0.370845,-0.780572 0.273818,-0.169229 0.317017,0.285796 0.16511,1.739161 -0.26177,2.504485 -0.474962,2.980155 -3.895809,8.692263 -2.220876,3.708404 -4.000146,11.333897 -4.000146,17.143597 0,2.06969 0.09277,3.6703 0.206155,3.55691 0.113386,-0.11338 0.592523,-1.68538 1.06475,-3.49333 1.355259,-5.18869 3.034957,-8.93142 8.731161,-19.454914 2.690192,-4.970013 3.258681,-6.342968 3.971795,-9.592264 0.09657,-0.44 0.86621,-2.265741 1.71032,-4.057203 0.844111,-1.791462 1.440488,-3.362549 1.325283,-3.491304 -0.115205,-0.128756 -0.06158,-0.150365 0.119166,-0.04802 0.180746,0.102344 0.561541,-0.219746 0.846212,-0.715756 l 0.517582,-0.901836 -1.413671,0.625334 c -3.472994,1.53627 -10.358753,2.122926 -10.358753,0.88255 0,-0.15277 0.432,-0.191364 0.96,-0.08576 0.528,0.1056 0.96,0.05667 0.96,-0.108732 0,-0.165402 0.525823,-0.551479 1.168494,-0.857948 0.642672,-0.306469 2.243645,-1.44655 3.557719,-2.533514 2.275144,-1.881935 2.492204,-2.182844 4.545964,-6.302052 1.186206,-2.379165 2.609233,-5.088091 3.162281,-6.019836 0.553049,-0.931745 1.005543,-1.96834 1.005543,-2.303544 0,-0.335204 0.861071,-1.508765 1.913491,-2.607913 1.720882,-1.79729 1.86583,-2.051116 1.44,-2.521654 -0.65526,-0.724053 -0.59184,-1.676042 0.176749,-2.653144 0.416118,-0.529008 0.586094,-1.09183 0.472085,-1.563155 -0.381639,-1.577733 3.458629,-11.462222 4.174942,-10.745909 0.06195,0.06195 -0.293875,0.971407 -0.790719,2.021018 -0.820449,1.733242 -2.248156,6.727443 -2.375141,8.308382 -0.03444,0.428794 0.17183,0.671863 0.625048,0.73655 0.56503,0.08065 0.709995,-0.113201 0.880077,-1.176835 0.226082,-1.413836 1.413673,-2.599715 2.603468,-2.599715 0.39253,0 1.100694,0.304417 1.573697,0.676482 0.473004,0.372065 0.897896,0.624065 0.944205,0.56 0.04631,-0.06407 0.883072,-1.340482 1.859475,-2.836482 4.675646,-7.163812 9.338635,-11.896081 14.982624,-15.205228 2.321914,-1.361369 2.964203,-1.594772 4.388571,-1.594772 1.217554,0 1.82303,0.162706 2.24,0.601942 0.552834,0.582355 0.545396,0.594398 -0.228571,0.370083 -2.229052,-0.646032 -4.162101,-0.42807 -5.202925,0.586658 -0.218392,0.212916 -1.477075,1.131899 -2.797075,2.042186 -1.32,0.910286 -2.846267,2.05648 -3.391703,2.547098 -0.545436,0.490618 -1.401897,1.189945 -1.903246,1.554059 -1.473696,1.0703 -0.41583,1.145044 1.147576,0.08108 0.785055,-0.534262 3.155373,-1.831895 5.267373,-2.88363 3.28878,-1.637748 4.166184,-1.937537 6.112322,-2.088444 1.399435,-0.108514 2.505756,-0.04065 2.88,0.176653 0.496597,0.288351 0.283622,0.35463 -1.165091,0.362582 -2.674644,0.01468 -5.230352,0.811275 -8.947231,2.78878 -4.729189,2.516087 -8.837185,5.404405 -10.27667,7.22549 -1.732513,2.191793 -4.633926,6.963156 -4.813305,7.915461 -0.145373,0.771771 -0.09076,0.8 1.547637,0.8 h 1.698326 l 0.850445,-2.001018 c 0.467744,-1.10056 1.047943,-2.164928 1.28933,-2.365262 0.352914,-0.292893 0.396379,-0.24568 0.221887,0.241018 -0.119351,0.332894 -0.333739,0.758103 -0.476419,0.944909 -0.14268,0.186806 -0.756258,1.626806 -1.363506,3.2 -3.480449,9.01678 -4.684743,17.96633 -3.485276,25.900354 l 0.532154,3.52 0.387477,-2.643108 c 0.213113,-1.453709 0.545077,-3.095197 0.737699,-3.647751 0.192621,-0.552554 0.35022,-1.415156 0.35022,-1.916892 0,-1.768693 0.520014,-0.882767 0.920226,1.567751 0.735703,4.504742 2.22556,9.064722 4.398134,13.461291 2.074411,4.197918 2.803277,5.230907 1.915549,2.714817 -0.824108,-2.335772 -1.476336,-6.278357 -1.762854,-10.656108 -0.155507,-2.376 -0.237634,-4.395602 -0.182506,-4.488006 0.05513,-0.0924 0.326723,-1.908949 0.603546,-4.036769 0.939156,-7.218914 3.042389,-14.069924 6.51913,-21.235226 1.98644,-4.093904 1.934489,-4.000953 2.128012,-3.80743 0.07658,0.07658 -0.624514,1.730814 -1.557988,3.676075 -2.675085,5.574598 -4.856071,12.210213 -5.722742,17.411356 -0.208024,1.24841 -0.394462,1.582868 2.051357,-3.68 0.490756,-1.056 1.209278,-2.259959 1.596715,-2.675464 1.317364,-1.412799 2.931215,-4.037277 4.340702,-7.058938 0.773356,-1.657921 2.202982,-4.21204 3.176948,-5.67582 1.930413,-2.901233 5.1792,-6.509779 5.860776,-6.509779 0.235375,0 -0.364313,0.756 -1.33264,1.68 -2.879811,2.747981 -5.759136,7.386331 -8.080318,13.016708 -1.724235,4.182393 -3.462886,11.017987 -3.831387,15.063293 l -0.218624,2.4 1.56246,-3.04 c 2.155872,-4.194574 5.10252,-8.108843 8.977277,-11.925237 3.166074,-3.118387 3.368929,-3.404405 5.753969,-8.112917 1.359707,-2.684316 2.530527,-4.822243 2.601827,-4.750949 0.21375,0.213752 -0.88034,2.684632 -5.981768,13.509103 -1.762611,3.74 -3.095501,6.8 -2.961978,6.8 0.133523,0 1.55942,-1.85101 3.16866,-4.113356 2.429049,-3.41487 3.088402,-4.610654 3.882906,-7.041924 1.05703,-3.234651 3.12656,-7.919438 3.38451,-7.661495 0.0906,0.09057 -0.28123,1.157391 -0.82622,2.37072 -1.84919,4.116974 -3.180329,9.782932 -3.644057,15.510888 -0.194306,2.400068 -0.187535,2.428832 0.663027,2.816374 1.00692,0.458781 1.231,0.237299 1.55853,-1.540453 0.24732,-1.342411 4.16241,-13.042146 4.98625,-14.900755 0.89364,-2.016079 0.69817,-0.598254 -0.3473,2.519192 -1.19464,3.56224 -2.11628,8.372869 -2.39968,12.525512 l -0.2187,3.204704 1.27706,0.71775 c 0.70238,0.394762 2.04749,1.477915 2.98913,2.407006 l 1.71206,1.689256 0.72175,-4.01171 c 0.53949,-2.998644 0.75106,-5.587478 0.83781,-10.251709 0.12652,-6.801893 0.64683,-9.797519 2.31377,-13.321145 1.07328,-2.268732 2.97077,-4.287567 3.99713,-4.252752 0.71236,0.02416 0.69527,0.05867 -0.22996,0.464395 -1.8274,0.801324 -3.73417,4.450406 -4.83021,9.24379 -0.71756,3.138143 -0.69646,13.204741 0.0369,17.625712 0.29197,1.76 0.60903,3.770373 0.70457,4.467495 0.0955,0.697122 0.45148,1.877221 0.79096,2.622443 0.33949,0.745222 0.61725,1.546809 0.61725,1.781304 0,0.234495 0.22417,0.746395 0.49815,1.137556 0.52534,0.750034 0.21932,0.980672 -0.43415,0.327202 -0.29866,-0.298666 -0.384,-0.161131 -0.384,0.618908 0,1.020728 -1.16834,4.027196 -2.45011,6.304793 -0.65963,1.172117 -0.67141,1.289603 -0.1694,1.689804 0.49404,0.393854 0.4838,0.422678 -0.1215,0.341984 -0.43139,-0.05751 -1.02651,0.328157 -1.71315,1.110195 -0.57867,0.659074 -0.96236,1.198317 -0.85263,1.198317 1.0287,0 6.67449,-4.950807 7.89164,-6.920201 l 0.63337,-1.024814 -0.94728,-1.867493 c -2.43851,-4.80733 -3.1669,-11.818534 -2.12222,-20.427493 0.51583,-4.250866 2.2975,-10.962132 3.14321,-11.840001 0.36623,-0.380148 0.36163,-0.355091 -1.16171,6.329885 -2.45256,10.762724 -2.28502,18.655083 0.53041,24.984967 l 0.97623,2.19485 1.20774,-2.35485 c 1.93537,-3.773597 4.41457,-10.290477 4.97193,-13.069339 0.28301,-1.411032 0.65347,-2.565512 0.82325,-2.565512 0.16978,0 0.22925,0.207022 0.13216,0.460049 -0.0971,0.253027 -0.33726,1.346352 -0.53369,2.429611 -0.35775,1.972886 -1.65485,5.931028 -2.89676,8.839533 -0.90695,2.124044 -0.35213,1.447128 1.54608,-1.886327 C 125.92918,66.682944 128,59.141745 128,53.859199 c 0,-1.699463 0.10411,-2.312627 0.36525,-2.151234 0.60791,0.375712 0.10716,6.881564 -0.81065,10.532037 -0.44251,1.76 -0.87737,3.992 -0.96637,4.96 -0.16595,1.805013 -2.20798,9.87054 -2.76032,10.9026 -0.41173,0.769324 -0.38886,0.9374 0.12756,0.9374 0.46952,0 2.17603,-3.522964 3.91927,-8.091026 1.0317,-2.703506 1.08574,-3.051796 1.09499,-7.056424 0.007,-3.210636 0.0931,-4.069004 0.36027,-3.60901 0.23528,0.405101 0.2836,1.983299 0.14695,4.8 -0.29571,6.095351 -0.64106,8.549988 -1.78352,12.67646 -1.26335,4.563152 -1.88805,6.96185 -2.08406,8.00243 -0.42229,2.241721 -2.93892,7.478726 -4.40877,9.174453 l -1.0406,1.200508 1.01688,-0.714023 c 1.72013,-1.207817 5.44997,-6.600947 6.18238,-8.939347 0.15228,-0.486211 0.64989,-1.74802 1.10578,-2.80402 l 0.8289,-1.920001 -0.20306,2.400001 c -0.11169,1.32 -0.39701,3.257815 -0.63405,4.306256 -0.66526,2.942484 -0.30297,2.470334 0.7708,-1.004524 2.74159,-8.872206 3.66831,-14.474262 3.70526,-22.398469 0.0186,-3.989823 0.12638,-5.648159 0.34316,-5.28 0.17525,0.297623 0.31735,3.031508 0.31896,6.136736 0.003,6.130458 -0.45619,9.692602 -2.06559,16.017409 -0.51082,2.007455 -0.86952,3.70915 -0.79713,3.781546 0.20051,0.200512 1.36573,-2.663135 1.60706,-3.949512 0.11726,-0.625081 0.34665,-1.218987 0.50976,-1.319789 0.16967,-0.104864 0.22164,0.204697 0.12147,0.723534 -0.35002,1.812851 1.74685,-2.980741 2.37047,-5.419087 0.68891,-2.693587 0.94012,-7.868017 0.52405,-10.794101 -0.1835,-1.290494 -0.15512,-1.669281 0.10639,-1.41993 0.56429,0.538051 1.14974,7.17836 1.13528,12.87662 -0.0142,5.596375 0.12171,5.666961 1.15438,0.59954 0.9166,-4.497809 0.9131,-10.544615 -0.009,-15.89623 -1.37673,-7.988532 -1.85545,-9.807046 -4.22893,-16.064663 -0.18038,-0.475564 -1.42935,-1.953329 -2.7755,-3.283922 -1.7279,-1.707949 -2.32891,-2.494846 -2.0441,-2.67634 0.50307,-0.32058 -0.61255,-1.449203 -1.92343,-1.94584 -1.02021,-0.386518 -1.04732,-0.321023 -0.39178,0.946655 0.26852,0.51926 0.36242,0.944109 0.20867,0.944109 -0.15376,0 -0.80498,-1.063109 -1.44715,-2.362466 -0.64218,-1.299356 -1.70808,-2.894863 -2.36867,-3.545572 -1.06498,-1.049054 -6.14828,-4.612571 -8.45359,-5.926179 -2.89834,-1.651523 -3.67725,-1.985254 -5.32088,-2.279793 -1.26232,-0.226206 -2.50776,-0.775815 -4.03157,-1.779114 -1.81349,-1.194026 -2.60891,-1.507702 -4.48,-1.766702 -3.051045,-0.422329 -3.146148,-0.678555 -0.19503,-0.525431 2.46333,0.127814 2.3968,0.100684 6.43056,2.622143 0.52519,0.328288 1.48427,0.668228 2.13129,0.755422 3.91401,0.52746 14.91195,7.832226 16.09605,10.690899 0.25641,0.619017 0.89979,1.143507 2.04699,1.668711 0.98127,0.449239 1.98885,1.212954 2.43679,1.847015 0.42006,0.594587 1.30789,1.650984 1.97297,2.347548 1.25997,1.319623 4.08535,6.428094 4.08535,7.386579 0,0.303269 0.27652,1.000396 0.61449,1.54917 1.35074,2.193258 3.04009,13.466676 3.00271,20.037771 -0.0303,5.328151 -0.67325,8.843655 -2.44535,13.370688 -0.60053,1.534122 -1.33853,3.575097 -1.64001,4.535499 -0.30147,0.960403 -0.8979,2.43641 -1.32538,3.280015 -0.82976,1.637453 -3.28999,4.413799 -3.91125,4.413799 -0.20597,0 0.17737,-0.568658 0.85187,-1.263685 1.32587,-1.366221 3.121,-4.477848 3.36748,-5.837089 0.0841,-0.4637 0.29857,-1.115306 0.47663,-1.448015 0.58288,-1.089123 1.34098,-5.617003 1.5824,-9.451212 0.23889,-3.793921 0.0116,-5.043741 -0.40819,-2.244441 -0.34893,2.326801 -1.84435,6.102269 -3.31688,8.374053 -0.73068,1.127287 -1.32852,2.221936 -1.32852,2.432554 0,0.210618 -0.648,1.36954 -1.44,2.575383 -0.792,1.205842 -1.44062,2.343193 -1.44138,2.527446 -0.004,0.989971 -4.21252,8.324421 -4.93569,8.601927 -0.72484,0.278148 -0.83905,-0.149214 -0.18885,-0.706646 1.55979,-1.337243 4.14538,-7.820586 3.73886,-9.375134 -0.0842,-0.321828 -0.0293,-0.585141 0.12198,-0.585141 0.25147,0 0.93908,-1.976147 0.9433,-2.710973 9.8e-4,-0.171034 -0.5009,0.737948 -1.11529,2.019961 -1.90152,3.967817 -5.39189,8.157679 -6.79576,8.157679 -0.22691,0 -0.77879,0.480151 -1.22641,1.067003 -0.44761,0.586851 -1.23125,1.282852 -1.74141,1.546666 -1.06028,0.548294 -2.23935,0.63236 -2.23935,0.159664 0,-0.176 0.29307,-0.32 0.65126,-0.32 1.00505,0 2.13924,-0.890399 3.62974,-2.849511 2.0013,-2.630522 3.55788,-5.34283 4.49203,-7.827281 l 0.82599,-2.196791 -1.2512,1.130381 c -1.7175,1.551663 -2.59856,2.003586 -2.9133,1.494324 -0.14857,-0.240388 -0.33229,0.127075 -0.46946,0.938955 -0.19104,1.130736 -0.31973,1.30396 -0.8449,1.137276 -0.4236,-0.134444 -0.97422,0.114777 -1.74098,0.788007 -1.61957,1.421998 -2.01732,1.210078 -0.62381,-0.332365 0.99202,-1.098056 1.15781,-1.477101 0.99723,-2.28 -0.10593,-0.529648 -0.1926,-1.088995 -0.1926,-1.242995 0,-0.740649 -0.63389,-0.14644 -0.98144,0.92 -0.21509,0.66 -0.83826,1.848 -1.38482,2.64 -0.54655,0.792 -1.08612,1.8 -1.19904,2.24 l -0.20531,0.8 -0.23201,-0.72 c -0.12761,-0.396 -0.34159,-0.72 -0.47552,-0.72 -0.52465,0 -0.9799,0.936784 -0.80156,1.649391 0.15822,0.632174 -0.004,0.839877 -1.02622,1.316372 l -1.21408,0.565762 1.31795,-0.09021 c 1.30977,-0.08965 1.31473,-0.08577 0.8,0.624181 -0.28487,0.392914 -0.69917,0.718915 -0.92066,0.724446 -0.32173,0.008 -0.32285,0.137933 -0.006,0.645995 0.39631,0.634586 0.39765,0.634586 0.6324,0 0.12939,-0.349766 0.38389,-0.635939 0.56556,-0.635939 0.40707,0 0.41458,0.331249 0.0216,0.952691 -0.2048,0.323869 -0.13546,0.653306 0.22025,1.04636 0.48118,0.531698 0.46526,0.669578 -0.21752,1.884418 -0.40517,0.72091 -1.57953,2.48205 -2.60967,3.91364 l -1.873,2.60289 -0.006,3.07809 c -0.01,5.17531 1.26443,10.78482 3.06844,13.51087 0.88609,1.33897 0.77855,2.09157 -0.12148,0.8502 -1.29838,-1.7908 -4.22951,-6.85923 -4.89419,-8.46291 l -0.72102,-1.73959 -1.00045,2.46167 c -0.55024,1.35392 -1.87759,3.82967 -2.94967,5.50167 l -1.949226,3.04 0.665506,0.96 c 0.36602,0.528 1.19183,1.608 1.83512,2.4 1.40926,1.73506 1.75103,2.57489 1.19213,2.92952 -0.22596,0.14338 -0.50802,0.26289 -0.6268,0.26558 -0.19695,0.004 -1.52475,-2.2317 -2.752231,-4.6351 -0.269665,-0.528 -0.523487,-1.00334 -0.56405,-1.05633 -0.04056,-0.053 -0.875829,0.17445 -1.856147,0.50541 l -1.782398,0.60173 2.063911,2.5346 c 1.135151,1.39403 2.064578,2.6677 2.065394,2.83037 0.0027,0.52861 -1.610098,-1.16923 -5.448334,-5.73578 -4.021133,-4.78415 -6.070182,-6.91551 -6.070182,-6.31403 0,0.20433 0.288,0.52565 0.64,0.71403 0.739712,0.39589 0.876817,1.11935 0.16,0.84428 -0.264,-0.1013 -0.484712,-0.0807 -0.49047,0.0458 -0.0058,0.12647 -0.138879,1.22679 -0.295823,2.44514 -0.281467,2.18503 -0.268253,2.2492 0.97047,4.7129 1.294999,2.57563 1.47015,3.15191 0.957958,3.15191 -0.163825,0 -0.799549,-1.0028 -1.412718,-2.22846 -1.086473,-2.17173 -1.122696,-2.20635 -1.422906,-1.36 -0.169428,0.47766 -0.640689,1.62446 -1.047245,2.54846 -0.849982,1.93179 -1.516571,2.14134 -2.621383,0.82406 -1.626407,-1.93918 -4.255229,-4.58402 -4.555825,-4.58359 -0.177132,2.6e-4 -1.036945,0.72894 -1.910695,1.6193 -1.623669,1.65452 -4.651364,3.99652 -4.651364,3.59795 z m 13.350413,-2.59811 c 1.041301,-2.26982 1.690039,-5.05796 1.68618,-7.24684 -0.0031,-1.78513 -0.0887,-2.01564 -1.12,-3.01771 -0.614126,-0.59672 -1.122082,-1.24472 -1.128791,-1.44 -0.0067,-0.19528 -0.690865,-1.08212 -1.520346,-1.97075 -1.349206,-1.44542 -1.512974,-1.53816 -1.553949,-0.88 -0.02519,0.40463 0.07326,0.73569 0.218781,0.73569 0.145521,0 0.351297,0.27321 0.45728,0.60713 0.131241,0.41351 0.393257,0.55469 0.821564,0.44268 1.06996,-0.2798 0.725801,0.71721 -0.469841,1.36111 -0.60429,0.32543 -1.166809,0.8521 -1.250041,1.17039 -0.08323,0.31828 -0.385881,0.57869 -0.67255,0.57869 -0.392629,0 -0.450262,0.13816 -0.233609,0.56 0.402315,0.78335 0.715271,5.14965 0.383787,5.35452 -0.502643,0.31065 0.138918,1.71967 1.591122,3.4945 0.792001,0.96795 1.584843,1.7669 1.761873,1.77545 0.17703,0.009 0.639873,-0.67764 1.02854,-1.52486 z m -16.519929,-5.78203 c -0.235819,-0.45777 -0.925922,-3.82843 -1.452235,-7.09312 -0.259824,-1.61167 0.295937,-2.2072 2.199084,-2.35642 1.706881,-0.13384 2.793367,0.37311 5.516522,2.57395 0.733621,0.59291 1.415688,1.07801 1.515706,1.07801 0.21945,0 1.150439,-2.16941 1.150439,-2.68078 0,-0.19944 -0.468,-0.52351 -1.04,-0.72015 -10.326314,-3.55001 -19.037747,-8.06936 -20.338031,-10.55104 -0.413469,-0.78913 -0.458041,-0.80174 -0.850147,-0.24041 -1.36326,1.9516 -1.82138,5.88861 -0.962595,8.27238 0.253625,0.704 0.463305,1.51449 0.465955,1.80109 0.0026,0.2866 0.832818,1.14771 1.844818,1.91359 1.901796,1.43928 7.553451,6.91168 8.4,8.13358 0.264,0.38105 1.044359,1.53824 1.734131,2.57153 l 1.254132,1.87871 0.414424,-2.03167 c 0.237241,-1.16305 0.30043,-2.25295 0.147797,-2.54925 z M 80.89528,125.3057 c 0.08791,-1.99603 -0.220541,-3.0657 -0.884029,-3.0657 -0.296848,0 -0.430002,3.98474 -0.161431,4.83094 0.411879,1.29771 0.950623,0.38805 1.04546,-1.76524 z m 16.544723,1.61537 0.96,-0.41006 -1.28,-0.80858 c -2.818642,-1.78054 -4.96,-2.62348 -4.96,-1.95249 0,0.46159 3.352433,3.60964 3.829069,3.59563 0.270012,-0.008 0.922931,-0.19896 1.450931,-0.4245 z m 2.452018,-2.64413 c 0.801249,-1.81137 1.547979,-5.74047 1.547979,-8.14509 0,-1.98074 -0.41655,-2.51565 -0.78796,-1.01185 -0.52363,2.12012 -3.61808,5.76341 -5.895442,6.94108 -0.548127,0.28345 -0.996595,0.64808 -0.996595,0.8103 0,0.16222 0.746828,0.67005 1.659619,1.12852 0.91279,0.45847 2.027152,1.10131 2.476359,1.42854 1.006339,0.73306 1.215879,0.61218 1.99604,-1.1515 z m -8.372018,-1.5227 c 0,-0.0692 -0.223479,-0.21152 -0.49662,-0.31633 -0.284776,-0.10928 -0.413223,-0.0556 -0.301115,0.12576 0.187923,0.30406 0.797735,0.44974 0.797735,0.19057 z M 94.857189,120 c 0.385337,-0.616 1.046855,-1.69074 1.470041,-2.38832 l 0.769429,-1.26833 -1.268328,0.7703 c -0.69758,0.42366 -1.905823,1.25006 -2.684983,1.83645 -1.655419,1.24584 -2.569632,1.53356 -3.783345,1.19068 -0.484,-0.13673 -0.952,-0.26208 -1.04,-0.27856 -0.088,-0.0165 -0.88,-0.5213 -1.76,-1.12182 -0.904234,-0.61706 -1.356482,-0.81315 -1.04,-0.45093 0.308,0.35251 0.56,0.78727 0.56,0.96613 0,0.17887 0.288,0.58585 0.64,0.9044 0.352,0.31856 0.64,0.46475 0.64,0.32488 0,-0.13988 -0.251774,-0.43842 -0.559497,-0.66344 -0.307724,-0.22501 -0.466695,-0.50191 -0.353271,-0.61534 0.113424,-0.11342 0.946005,0.45081 1.850178,1.25384 1.085688,0.96425 1.939162,1.46173 2.513271,1.46496 0.478125,0.003 1.083093,0.14007 1.344372,0.30527 0.565451,0.35753 1.636245,-0.52623 2.702133,-2.23017 z m 10.031621,-5.6699 c 0.14468,-1.2836 0.71119,-1.97257 0.71119,-0.86493 0,0.55378 2.59154,6.28997 2.76387,6.11764 0.0587,-0.0587 -0.10702,-1.32079 -0.36817,-2.80473 -0.26115,-1.48394 -0.47502,-3.74208 -0.47526,-5.01808 -2.4e-4,-1.276 -0.11934,-2.32 -0.26466,-2.32 -0.14532,0 -0.61332,0.37604 -1.04,0.83565 -0.42668,0.4596 -1.60378,1.40097 -2.61578,2.09192 l -1.84,1.25628 -0.004,3.58808 c -0.002,1.97344 -0.0801,3.94807 -0.17275,4.38807 -0.0926,0.44 0.57859,-0.70745 1.49155,-2.5499 0.91297,-1.84245 1.72944,-3.96645 1.81438,-4.72 z M 79.360002,120.8 c 0,-0.44 -0.144,-0.8 -0.32,-0.8 -0.176,0 -0.32,0.36 -0.32,0.8 0,0.44 0.144,0.8 0.32,0.8 0.176,0 0.32,-0.36 0.32,-0.8 z m 2.829372,-1.9428 c -0.06015,-0.31029 -0.279622,-0.62084 -0.487706,-0.69012 -0.454286,-0.15125 -0.897791,0.64458 -1.176088,2.1104 l -0.204568,1.07748 0.988867,-0.9668 c 0.552227,-0.53991 0.940573,-1.21591 0.879495,-1.53096 z m 14.494489,0.9028 c 1.261045,-1.38093 3.202533,-4.26082 3.093324,-4.58845 -0.239853,-0.71955 -2.1645,1.24261 -2.849167,2.90472 -0.399592,0.97005 -0.951866,1.93915 -1.227274,2.15356 -0.275409,0.2144 -0.347684,0.3944 -0.160612,0.4 0.187072,0.006 0.70175,-0.38583 1.143729,-0.86983 z M 37.920001,120 c 0.108774,-0.176 -0.02673,-0.32 -0.301114,-0.32 -0.274387,0 -0.498886,0.144 -0.498886,0.32 0,0.176 0.135502,0.32 0.301115,0.32 0.165613,0 0.390111,-0.144 0.498885,-0.32 z m 55.429569,-2.19461 c 1.545738,-1.03103 3.45041,-2.20023 4.232604,-2.59822 2.505296,-1.27471 6.533786,-4.02861 8.017826,-5.48104 1.81265,-1.77403 2.76868,-3.01329 6.00081,-7.77862 l 1.06656,-1.57249 -1.07659,-1.14751 c -1.92695,-2.05387 -2.23323,-2.783426 -2.09302,-4.985473 0.14327,-2.250061 1.11168,-4.462217 2.72517,-6.225165 1.19049,-1.30077 1.11445,-1.696216 -0.14686,-0.763748 -0.48184,0.356212 -1.45207,0.8348 -2.15607,1.063528 -0.704,0.228728 -1.7292,0.633673 -2.27822,0.899879 -0.97569,0.473088 -2.04178,0.367559 -2.04178,-0.20211 0,-0.157118 0.33464,-0.221698 0.74365,-0.143512 0.58481,0.111794 1.10425,-0.252414 2.43205,-1.705232 1.43148,-1.566276 1.61453,-1.901409 1.2029,-2.202399 -1.12692,-0.824021 -3.80118,-5.262277 -4.80297,-7.97109 -1.37981,-3.730981 -1.79728,-4.917339 -2.1674,-6.159286 -0.16508,-0.553905 -0.63994,-1.229747 -1.05526,-1.501871 -0.74011,-0.484941 -0.75899,-0.471292 -0.95052,0.6871 -0.10747,0.650029 -0.19699,2.097084 -0.19893,3.215677 -0.003,1.705538 0.12561,2.187263 0.79648,2.984552 0.95582,1.135925 1.06716,1.882608 0.15804,1.059867 -1.06847,-0.966951 -1.09864,-0.272268 -0.0437,1.00749 1.18251,1.434596 1.08434,1.789812 -0.17256,0.624349 -0.4951,-0.459083 -0.95206,-0.679079 -1.01545,-0.48888 -0.21612,0.648331 0.96173,3.17013 1.78203,3.815376 0.56905,0.447617 0.66585,0.64344 0.31807,0.64344 -0.27496,0 -0.81935,-0.396 -1.20976,-0.88 -0.72592,-0.899946 -0.76088,-0.578286 -0.11301,1.04 0.2325,0.580744 0.20362,0.597167 -0.31193,0.177384 -0.31248,-0.254439 -1.194184,-1.694439 -1.959338,-3.2 -1.376108,-2.707713 -2.289003,-3.908619 -4.15005,-5.459359 -0.753588,-0.627938 -0.835689,-0.652763 -0.385205,-0.116479 0.459678,0.547228 0.553824,1.146344 0.477711,3.04 -0.06262,1.558045 -0.219409,2.335017 -0.461976,2.289394 -0.20195,-0.03798 -0.303666,0.178017 -0.226037,0.48 0.0789,0.306929 -0.28263,1.042972 -0.819814,1.66906 -0.662797,0.772492 -0.964993,0.956869 -0.973963,0.594237 -0.0149,-0.602223 -0.758128,-0.976607 -1.428263,-0.719451 -0.713075,0.273632 -0.887882,1.125052 -0.352458,1.716689 0.687579,0.759766 0.626968,0.871175 -0.599076,1.101183 -1.594862,0.299198 -2.632299,-0.324902 -3.528021,-2.122382 -1.049084,-2.105238 -0.981905,-4.55905 0.18864,-6.890276 0.960506,-1.91292 0.801107,-2.113783 -0.553958,-0.698054 -0.891667,0.931585 -0.937952,1.116217 -0.902479,3.6 0.02057,1.43993 -0.02743,2.438054 -0.106667,2.218054 -0.07923,-0.22 -0.348057,-0.4 -0.59739,-0.4 -0.293506,0 -0.461263,-0.366662 -0.475825,-1.04 -0.01237,-0.572 -0.155373,-1.328 -0.317783,-1.68 -0.220194,-0.477235 -0.274924,-0.253433 -0.215203,0.88 0.04405,0.836 -0.0262,1.52 -0.15612,1.52 -0.404915,0 -0.634239,-1.490387 -0.518971,-3.372811 l 0.110568,-1.805661 -1.011422,0.16448 c -1.667049,0.2711 -1.515396,-0.169482 0.442169,-1.28459 l 1.849254,-1.053409 -1.760001,-0.04444 c -1.727944,-0.04363 -1.739601,-0.05022 -0.64,-0.361462 l 1.12,-0.317019 0.04503,-2.602543 c 0.05618,-3.246988 0.90546,-8.301124 1.887992,-11.235531 0.411221,-1.228143 0.701021,-2.279641 0.644,-2.336662 -0.137887,-0.137887 -1.777017,2.805791 -1.777017,3.191306 0,0.165575 -0.343498,0.759438 -0.763328,1.319695 -0.850188,1.134563 -1.958433,3.412898 -3.29732,6.778649 -0.840897,2.113885 -0.890857,2.519255 -0.887355,7.2 0.004,5.314331 0.361799,8.078377 1.63633,12.640001 0.808833,2.894861 1.517772,4.157608 2.123882,3.783011 0.187136,-0.115656 0.229145,-0.04409 0.09835,0.167546 -0.125581,0.203194 -0.05183,0.369443 0.16389,0.369443 0.215721,0 0.313211,0.07901 0.216645,0.175573 -0.306471,0.306472 -1.851093,-0.228126 -1.851093,-0.640668 0,-0.217642 -0.303963,-0.670031 -0.675475,-1.005309 -1.034998,-0.934055 -4.125643,-6.366832 -5.161523,-9.072995 -0.966052,-2.523744 -2.163002,-6.971142 -2.163002,-8.036873 0,-0.857642 -0.595215,-0.780508 -0.773755,0.100271 -0.08027,0.396 -0.227598,2.307509 -0.327392,4.247797 -0.256194,4.981186 0.792064,8.629928 3.098225,10.784205 0.522833,0.488399 0.76908,0.887999 0.547216,0.887999 -0.221864,0 -0.943778,-0.568067 -1.604254,-1.262372 -1.257881,-1.322307 -2.391774,-3.882297 -2.737715,-6.180941 -0.112298,-0.746178 -0.545398,-2.652688 -0.962445,-4.236688 -0.417046,-1.584 -0.758629,-3.276 -0.759073,-3.76 -9.63e-4,-1.049876 -0.624083,-1.196748 -0.678821,-0.16 -0.02091,0.396 -0.209657,0 -0.419443,-0.88 -0.338846,-1.421374 -0.407459,-1.510687 -0.614585,-0.8 -0.214254,0.73515 -0.286509,0.661985 -0.891334,-0.902555 -0.361999,-0.936406 -0.74919,-1.611546 -0.860425,-1.500311 -0.235184,0.235184 -0.458362,4.101598 -0.493851,8.55564 -0.02599,3.26137 -0.321329,3.6667 -0.800978,1.099263 -0.338505,-1.811928 -0.509034,-2.033428 -1.153637,-1.498455 -0.636942,0.528615 -0.61517,0.838981 0.1097,1.563851 0.328588,0.328588 0.689723,1.084588 0.802522,1.68 0.505059,2.665959 0.589005,3.802568 0.280844,3.802568 -0.4383,0 -0.945048,-0.66421 -1.098625,-1.440001 -0.07917,-0.39994 -0.35616,-0.619327 -0.738451,-0.584886 -0.881191,0.07939 -2.313047,-0.739242 -2.924056,-1.671759 -0.792495,-1.2095 -0.247361,-1.349775 0.925127,-0.238056 1.109781,1.052263 3.289602,1.650733 2.968949,0.815125 -0.09556,-0.249022 -0.173743,-0.737489 -0.173743,-1.085481 0,-0.347992 -0.121965,-0.557335 -0.271032,-0.465206 -0.149068,0.09213 -0.689068,-0.271675 -1.2,-0.808452 l -0.928968,-0.97596 1.167745,-1.012662 c 0.64226,-0.556965 1.271884,-1.372663 1.399165,-1.812663 0.12728,-0.44 0.33518,-0.944 0.461999,-1.12 0.126819,-0.176 0.261489,-1.03605 0.299267,-1.911222 l 0.06869,-1.591223 -0.791096,0.920656 c -0.77883,0.906381 -0.807644,0.912731 -1.858431,0.409539 -1.187131,-0.568482 -2.186973,-1.82775 -1.451209,-1.82775 0.231852,0 0.701073,0.21142 1.042711,0.469823 0.99724,0.754274 1.667297,0.594957 1.89704,-0.451054 0.113701,-0.517678 0.05658,-1.221782 -0.126929,-1.564678 -0.274857,-0.513574 -0.216542,-0.654072 0.330893,-0.79723 0.365504,-0.09558 0.569565,-0.327476 0.45347,-0.515322 -0.697863,-1.129166 -3.646294,0.656653 -5.087251,3.08127 -2.065115,3.474853 -2.446061,4.386035 -2.446061,5.850713 0,1.027825 0.236002,1.80522 0.8,2.635218 0.44,0.647518 0.8,1.264847 0.8,1.371841 0,0.406264 2.59816,3.99942 2.891923,3.99942 0.169442,0 0.308077,0.408951 0.308077,0.90878 0,0.767507 0.186546,0.969386 1.2,1.298633 0.66,0.214419 1.625148,0.420006 2.144774,0.45686 0.927506,0.06578 0.951546,0.113697 1.315251,2.621368 0.436376,3.008724 1.270424,6.363764 1.865375,7.503653 0.232725,0.445888 0.808516,1.561174 1.279534,2.478412 0.471017,0.917239 0.997778,1.755079 1.170579,1.861879 0.172801,0.1068 0.518473,0.68311 0.768159,1.28069 0.784467,1.8775 3.804546,5.71636 7.635658,9.7058 1.931143,2.01095 9.938571,7.46083 11.330238,7.7114 0.03826,0.007 1.334262,-0.83105 2.88,-1.86209 z M 100.8,108.83733 c 0,-0.19653 -0.20059,-0.35733 -0.44576,-0.35733 -0.24517,0 -0.52614,-0.20945 -0.624378,-0.46546 -0.09824,-0.256 -1.718718,-1.19192 -3.601067,-2.07982 -3.217259,-1.51758 -5.421216,-3.00401 -7.088792,-4.78095 -0.73955,-0.78805 -1.052971,-1.774738 -0.336,-1.05777 0.2112,0.2112 0.64784,0.384 0.970311,0.384 0.322472,0 0.689672,0.2647 0.816,0.58823 0.552901,1.41595 1.999176,2.53215 5.189689,4.00526 1.848,0.85326 3.600814,1.80675 3.895143,2.11888 0.294328,0.31213 1.194324,0.66636 2.000004,0.78718 0.80567,0.12082 1.46485,0.35484 1.46485,0.52006 0,0.16522 -0.18,0.30236 -0.4,0.30476 -0.22,0.002 -0.724,0.0912 -1.12,0.19732 -0.432,0.11578 -0.72,0.05 -0.72,-0.16436 z M 89.101436,86.369961 c -0.09856,-0.159477 -0.444084,-0.289958 -0.767825,-0.289958 -0.353008,0 -0.910542,-0.544382 -1.392858,-1.36 -0.985822,-1.667069 -0.854801,-1.923876 0.332879,-0.652461 0.490851,0.525458 1.431088,1.15015 2.089414,1.388204 0.658326,0.238054 1.196957,0.531102 1.196957,0.651219 0,0.352639 -1.262476,0.580278 -1.458567,0.262996 z M 58.880002,76.192298 c 0,-1.096904 0.149066,-2.272904 0.331259,-2.613333 0.455533,-0.851171 2.328399,-0.81944 3.563997,0.06038 1.421377,1.01211 0.674084,1.393374 -1.17637,0.600177 -1.759425,-0.754178 -2.029019,-0.592011 -2.128722,1.280477 -0.0328,0.616 -0.07533,1.364326 -0.09451,1.662945 -0.01918,0.29862 -0.13855,0.64662 -0.265264,0.773334 -0.126713,0.126713 -0.230388,-0.667079 -0.230388,-1.763983 z M 39.635397,118.10387 c 0.376533,-0.20151 0.685755,-0.46932 0.687161,-0.59513 0.0014,-0.1258 0.217406,-1.95126 0.48,-4.05657 0.262594,-2.10532 0.470936,-4.91332 0.462983,-6.24 L 41.251081,104.8 40.48066,106.24 c -1.476146,2.75908 -2.96116,8.04774 -3.180339,11.3263 -0.09295,1.39041 -0.08529,1.40177 0.778299,1.1541 0.479695,-0.13758 1.180245,-0.41501 1.556777,-0.61653 z M 80.84158,117.5895 c 0.799722,-0.74116 0.830976,-0.85409 0.365277,-1.31979 -0.4657,-0.4657 -0.552809,-0.42509 -1.018065,0.47462 -0.498268,0.96354 -0.650966,1.65567 -0.365277,1.65567 0.07893,0 0.537062,-0.36472 1.018065,-0.8105 z m -38.496516,-0.98183 c 0.457784,-0.45779 0.919124,-1.10579 1.0252,-1.44 0.333357,-1.05032 0.789737,-0.66178 0.789737,0.67233 0,0.704 0.108,1.27902 0.24,1.27782 0.132,-10e-4 0.594504,-0.54121 1.027787,-1.2 1.803086,-2.74156 2.630759,-3.58967 3.863651,-3.95905 0.686183,-0.20559 1.185465,-0.47434 1.109516,-0.59722 -0.07595,-0.12289 0.298085,-0.66957 0.831187,-1.21484 0.789283,-0.80729 0.908082,-1.10574 0.639744,-1.60713 -0.181243,-0.33866 -0.724799,-2.1826 -1.207904,-4.09766 -0.810672,-3.21355 -0.879358,-3.98012 -0.891176,-9.945964 -0.007,-3.555225 -0.09835,-6.363225 -0.202909,-6.24 -0.104557,0.123226 -0.518827,1.055853 -0.920599,2.072505 -0.401772,1.016652 -0.973432,2.168652 -1.270357,2.56 -0.653222,0.860951 -2.367527,3.911544 -5.34082,9.503949 -0.231714,0.43583 -0.316351,0.89736 -0.188081,1.02563 0.331469,0.33147 -0.139119,8.36616 -0.670076,11.44069 -0.498841,2.88856 -0.289205,3.20324 1.1651,1.74894 z m 12.374938,-1.57794 c 0,-0.26966 -0.216015,-1.00728 -0.480032,-1.63916 -0.404167,-0.96731 -0.555887,-1.08592 -0.96,-0.75054 -0.679153,0.56365 -0.595819,1.30292 0.240032,2.12938 0.859059,0.84941 1.2,0.92337 1.2,0.26032 z m 23.36,-0.17646 c 0,-0.16992 -0.553439,-1.20542 -1.229866,-2.30111 -0.676426,-1.09569 -1.926905,-3.21616 -2.778841,-4.71216 -0.851937,-1.496 -1.934767,-3.224 -2.40629,-3.84 -0.471522,-0.616 -1.096789,-1.552 -1.389482,-2.08 -0.292694,-0.528 -0.891473,-1.536 -1.330622,-2.239997 -0.439149,-0.704 -0.877914,-1.496 -0.975035,-1.76 -0.09712,-0.264 -0.308189,-0.727034 -0.469042,-1.028963 -0.589693,-1.106887 -1.670236,-5.265351 -1.868227,-7.189862 -0.111968,-1.088354 -0.273402,-2.048649 -0.358743,-2.13399 -0.08534,-0.08534 -0.586869,-0.262755 -1.114508,-0.394254 -0.837671,-0.208767 -0.908112,-0.176865 -0.555398,0.251532 0.329743,0.400498 0.311172,0.567618 -0.1011,0.909773 -0.946429,0.785466 -1.3965,2.140483 -1.549346,4.664568 -0.08397,1.386658 -0.457588,4.177196 -0.830266,6.201196 -0.372678,2.023997 -0.705864,4.754587 -0.740415,6.067977 l -0.06282,2.38798 1.44,0.76947 c 3.408016,1.82106 5.067482,2.61503 5.479586,2.62169 0.242228,0.004 0.800414,0.28871 1.240414,0.63288 0.44,0.34418 0.993782,0.62897 1.230627,0.63289 0.236844,0.004 0.812844,0.20557 1.28,0.44813 2.103236,1.09206 5.809373,2.50214 5.809373,2.21031 0,-0.12063 0.167052,-0.0523 0.371226,0.1519 0.395306,0.39531 0.908774,0.24278 0.908774,-0.26996 z m -24.432783,-9.84689 c -0.08826,-2.22551 -0.02417,-5.414377 0.142412,-7.086377 0.166584,-1.672 0.355077,-3.976 0.418872,-5.12 0.110031,-1.973127 1.580898,-8.618503 2.641283,-11.933319 0.444001,-1.387967 0.442139,-1.635228 -0.01964,-2.608362 -0.280578,-0.591273 -0.515548,-1.34128 -0.522156,-1.666681 -0.01647,-0.810911 -1.812621,1.268667 -3.634805,4.208361 -1.141466,1.841507 -1.399178,2.546642 -1.44864,3.963684 -0.03309,0.948025 -0.281506,2.587661 -0.552034,3.643633 -0.367973,1.436341 -0.442613,2.775449 -0.296321,5.316317 0.394614,6.853874 0.564508,8.546314 0.999456,9.956364 0.244303,0.792 0.524066,1.91531 0.621696,2.49623 0.09763,0.58093 0.307656,1.30093 0.466726,1.6 0.15907,0.29908 0.370713,0.8049 0.470317,1.12406 0.09961,0.31915 0.336846,0.48402 0.527203,0.36637 0.232681,-0.1438 0.293516,-1.53995 0.185634,-4.26028 z m 2.428386,-0.6176 c 0.273367,-0.22618 0.672074,-0.37018 0.886016,-0.32 0.226114,0.053 0.645158,-0.7127 1.000797,-1.82878 0.336496,-1.056 1.024861,-3.215997 1.529701,-4.799997 0.504839,-1.584 1.094981,-3.744 1.311427,-4.8 0.216445,-1.056 0.815197,-2.757767 1.330559,-3.781704 l 0.937022,-1.861704 -0.823252,-0.647571 C 61.795087,85.992861 60.714369,84.624209 59.846281,83.307576 L 58.267938,80.913697 57.77397,82.09593 c -0.271683,0.650227 -0.493968,1.407182 -0.493968,1.68212 0,0.274939 -0.284685,1.087969 -0.632633,1.806734 -1.213094,2.505918 -2.325992,11.782944 -2.222705,18.528296 l 0.04828,3.15308 0.552815,-1.23308 c 0.304049,-0.67819 0.776479,-1.41813 1.049846,-1.6443 z m 3.028989,2.28915 c -0.111141,-0.11114 -0.05693,-0.47328 0.120466,-0.80475 0.371169,-0.69353 -0.290264,-1.12547 -1.192993,-0.77906 -0.464241,0.17814 -0.438207,0.2981 0.21578,0.99423 0.409044,0.43541 0.814615,0.79165 0.901269,0.79165 0.08665,0 0.06662,-0.0909 -0.04452,-0.20207 z m 0.536522,-2.92316 c 0.291416,-1.00464 1.237257,-7.143396 1.116787,-7.248243 -0.06485,-0.05644 -0.693901,1.651275 -1.397901,3.794913 -1.264526,3.85041 -1.271537,3.89819 -0.579904,3.95281 0.422005,0.0333 0.764018,-0.16507 0.861018,-0.49948 z M 111.61966,93.747537 c 0.38519,-0.358856 0.70034,-0.781152 0.70034,-0.938436 0,-0.157283 0.27152,-0.372146 0.60337,-0.477471 0.84776,-0.26907 2.19041,-2.342157 2.45294,-3.787405 0.21976,-1.209844 0.21636,-1.214704 -0.69773,-0.995758 -1.33821,0.320533 -1.35254,0.340735 -1.17586,1.657987 0.13678,1.019731 -0.004,1.413154 -0.91046,2.543422 -1.15906,1.445342 -1.7541,1.692678 -1.94899,0.810127 -0.068,-0.308 -0.19365,-0.02 -0.27921,0.64 -0.17803,1.373454 0.19465,1.535967 1.2556,0.547534 z m 11.80428,-7.432619 c 1.80623,-1.880999 2.63095,-3.246695 2.21301,-3.664631 -0.0998,-0.09982 -0.40096,6.67e-4 -0.66921,0.223298 -0.6991,0.5802 -0.60173,-0.08235 0.15313,-1.042001 0.65759,-0.835992 0.57246,-1.831582 -0.15661,-1.831582 -0.44077,0 -2.9358,3.735475 -2.80426,4.198437 0.044,0.15486 -0.0841,0.281564 -0.28472,0.281564 -0.35673,0 -1.20493,0.917891 -1.2251,1.325763 -0.006,0.11317 0.20704,0.289119 0.47253,0.390997 0.33239,0.12755 0.85194,-0.370869 1.66841,-1.600552 0.65213,-0.982182 1.23566,-1.635893 1.29672,-1.45269 0.17045,0.511335 -0.75266,2.107586 -1.95773,3.385329 -0.59712,0.633134 -0.92467,1.153358 -0.72789,1.156053 0.19678,0.0027 0.14178,0.14449 -0.12222,0.3151 -0.264,0.17061 -0.32282,0.312405 -0.13072,0.3151 0.1921,0.0027 1.2157,-0.897388 2.27466,-2.000185 z m 7.06815,0.04134 c -0.0799,-0.239663 -0.22494,-0.09461 -0.3381,0.338096 -0.13919,0.53227 -0.0975,0.657208 0.13992,0.419747 0.18595,-0.185953 0.27513,-0.526983 0.19818,-0.757843 z m -15.46831,-1.469369 c 0.22913,-0.597096 0.0582,-0.505046 -0.808,0.435178 -0.73987,0.803092 -0.74274,0.821922 -0.062,0.406884 0.39261,-0.239348 0.78409,-0.618276 0.86996,-0.842062 z m 5.24452,-0.123001 c 0.3747,-0.599994 0.32392,-0.778742 -0.45103,-1.587612 -0.86264,-0.900402 -0.88339,-0.904495 -1.70527,-0.336352 -1.58676,1.096891 -1.7246,1.139676 -1.25641,0.389991 0.23256,-0.372384 0.67519,-0.757156 0.98362,-0.85505 0.58342,-0.185171 0.73969,-0.626526 0.3148,-0.88912 -0.13529,-0.08362 -0.70766,0.397873 -1.27192,1.069976 -1.06662,1.270459 -0.94983,1.604284 0.56123,1.604284 0.32503,0 0.80011,0.209142 1.05573,0.464761 0.25562,0.255619 0.55391,0.37562 0.66286,0.266667 0.10895,-0.108952 0.19809,-0.0301 0.19809,0.175238 0,0.586497 0.44572,0.437914 0.9083,-0.302783 z m -10.51655,-2.85586 c -0.16438,-1.137413 -0.30177,-3.661083 -0.30531,-5.608155 -0.007,-3.943503 0.11,-3.706305 -3.0024,-6.078033 -2.74859,-2.094488 -2.5724,-2.048419 -2.35346,-0.615394 0.44869,2.936741 0.75568,4.087318 1.92168,7.202108 1.15463,3.08443 3.58934,7.616516 3.91615,7.289707 0.0672,-0.06722 -0.0123,-1.052821 -0.17666,-2.190233 z m 2.54202,-0.788024 c 1.69572,-4.611322 1.71577,-4.75336 0.99886,-7.074467 -0.35895,-1.162121 -0.65263,-2.385779 -0.65263,-2.71924 0,-1.492552 -0.62302,-0.328915 -1.55424,2.902908 -0.90893,3.154439 -0.992,3.79336 -0.82168,6.320001 0.23984,3.55795 0.34394,3.916824 0.90095,3.106062 0.23248,-0.338395 0.74042,-1.479264 1.12874,-2.535264 z m 8.62266,-0.740188 c -1.7753,-0.135811 -2.39698,0.112957 -1.86978,0.7482 0.2193,0.264241 0.55952,0.461475 0.75604,0.438299 0.8455,-0.09971 1.47731,0.05755 1.47731,0.367717 0,0.183715 -0.18,0.310654 -0.4,0.282086 -1.12938,-0.146657 -1.29909,0.024 -0.6915,0.695376 l 0.60769,0.671489 0.71494,-1.55149 0.71494,-1.551489 z m -30.996427,2.244188 c 0,-0.821765 0.631818,-1.344 1.626019,-1.344 1.071997,0 2.537105,-1.796573 2.526953,-3.098649 -0.0099,-1.269311 -1.089304,-3.500537 -1.904536,-3.936836 -1.650956,-0.883565 -4.160384,0.711421 -4.916528,3.124932 -0.674138,2.151758 -0.90638,3.66199 -0.52709,3.427575 0.17335,-0.107136 0.31572,-0.07829 0.316378,0.06409 6.58e-4,0.142387 0.286541,0.726885 0.635296,1.298885 0.723585,1.186765 2.243508,1.501114 2.243508,0.464 z m -1.536,-2.048 c -0.557966,-0.557965 -0.470266,-2.411217 0.164994,-3.486626 0.422744,-0.715648 0.782818,-0.929374 1.565764,-0.929374 1.076852,0 1.405242,0.421123 1.405242,1.802064 0,2.102069 -1.989537,3.760399 -3.136,2.613936 z m 2.14544,-1.339178 c 0.523191,-0.630406 0.326861,-2.276822 -0.271504,-2.276822 -0.66861,0 -1.708634,1.930123 -1.460792,2.711004 0.159994,0.504094 0.331615,0.581197 0.770661,0.346226 0.310657,-0.166258 0.743393,-0.517442 0.961635,-0.780408 z m 32.786997,1.092949 c -0.17611,-0.176115 -0.74434,0.649069 -0.75154,1.091391 -0.003,0.165639 0.19933,0.02186 0.44894,-0.319497 0.24961,-0.341362 0.38578,-0.688714 0.3026,-0.771894 z M 57.7221,80.463382 c 0.109279,-0.284776 0.05563,-0.413223 -0.125764,-0.301114 -0.173984,0.107528 -0.316334,0.331007 -0.316334,0.49662 0,0.460298 0.229365,0.358868 0.442098,-0.195506 z m 69.6777,-4.438447 c 0.66678,-2.740359 0.64593,-4.028056 -0.0315,-1.944933 -0.22893,0.704 -0.84396,2.134599 -1.36671,3.179108 -0.90748,1.813201 -0.92402,1.918452 -0.3656,2.326777 0.70509,0.515576 0.83643,0.250415 1.76381,-3.560952 z m -5.90759,3.153914 c 0.82838,-0.131672 1.38957,-0.409758 1.48387,-0.735302 0.0834,-0.287949 0.60855,-2.081507 1.16699,-3.985682 0.55843,-1.904176 0.96638,-3.704176 0.90654,-4 -0.0635,-0.31372 -0.75852,0.689328 -1.6679,2.406953 -0.85751,1.619649 -2.28124,3.837297 -3.16386,4.928107 -1.40671,1.738536 -1.5093,1.959496 -0.8313,1.790485 0.4254,-0.106043 1.37295,-0.288095 2.10566,-0.404561 z M 54.677573,76.901858 c 1.008663,-1.224562 1.741967,-2.47922 1.924916,-3.293462 0.441633,-1.965565 -0.229347,-1.210378 -2.354835,2.650362 -0.984656,1.788531 -1.657349,3.109983 -1.494873,2.93656 0.162475,-0.173424 1.028632,-1.20548 1.924792,-2.29346 z m 44.562138,1.412811 c -0.316037,-0.313686 -0.352793,-0.276929 -0.179134,0.179134 0.12017,0.315591 0.299101,0.493191 0.397625,0.394667 0.09852,-0.09852 2.03e-4,-0.356734 -0.218491,-0.573801 z m 0.06978,-1.450524 c -0.08282,-0.316722 -0.444412,-0.759353 -0.803527,-0.983624 -0.727215,-0.454153 -0.607765,-0.07187 0.312303,0.999481 0.60463,0.704049 0.678857,0.701653 0.491224,-0.01586 z m 10.982429,-2.384143 c -0.0888,-0.22 -0.1614,-0.04 -0.1614,0.4 0,0.44 0.0726,0.62 0.1614,0.4 0.0888,-0.22 0.0888,-0.58 0,-0.8 z m -59.300685,-0.08074 c 2.382953,-0.62068 4.895702,-1.910077 5.339942,-2.740147 0.194789,-0.363965 1.554972,-1.87616 3.022629,-3.360432 2.458771,-2.486606 2.768633,-2.698677 3.943093,-2.698677 1.470579,0 1.663098,-0.291965 1.663098,-2.522172 0,-1.962014 -0.469008,-2.458782 -1.531977,-1.62265 -1.112066,0.874751 -2.890303,0.836605 -3.225378,-0.06919 -0.232849,-0.629451 -0.37329,-0.517819 -1.509689,1.2 -0.689126,1.041707 -2.224293,3.022456 -3.411483,4.401665 -1.18719,1.37921 -2.431914,2.85521 -2.766054,3.280001 -0.334141,0.42479 -0.69083,0.772346 -0.792643,0.772346 -0.101814,0 -1.132318,0.756 -2.29001,1.68 -1.157692,0.924 -2.565665,1.859382 -3.12883,2.078627 -0.950221,0.369928 -0.88385,0.386961 0.921925,0.236589 1.070224,-0.08912 2.764644,-0.375302 3.765377,-0.63596 z m 47.888763,0.199713 c 0,-0.154567 -0.792038,-0.826529 -1.760085,-1.493248 -2.187924,-1.506881 -2.036538,-1.892266 0.197732,-0.503368 0.904437,0.562229 1.700428,0.966239 1.768868,0.897799 0.06844,-0.06844 -0.01918,-1.117973 -0.1947,-2.332294 -0.175526,-1.214322 -0.32199,-3.175713 -0.325476,-4.358647 l -0.0063,-2.15079 -2.257001,-0.685543 c -1.241351,-0.377048 -2.304115,-0.633193 -2.361699,-0.56921 -0.503986,0.559989 -4.580555,5.641966 -4.75877,5.93243 -0.154701,0.252138 0.324316,0.537772 1.453357,0.866627 1.708226,0.497553 5.418379,2.558855 7.068665,3.927239 0.987533,0.818842 1.175448,0.893821 1.175448,0.469005 z m 12.510232,-3.59045 c 0.49387,-1.782211 0.60217,-2.815386 0.44082,-4.205577 -0.4033,-3.47483 -0.91222,-1.906099 -1.32267,4.077058 -0.10866,1.584 -0.10201,2.79251 0.0148,2.685577 0.11679,-0.106933 0.50697,-1.257609 0.86707,-2.557058 z m -11.21722,-2.790847 c -0.183154,-0.06105 -0.333012,-0.238486 -0.333012,-0.394295 0,-0.15581 0.215992,-0.200404 0.479992,-0.0991 0.36945,0.14177 0.48,-0.06982 0.48,-0.918679 0,-0.882185 -0.16948,-1.180095 -0.847005,-1.488796 l -0.847012,-0.385925 0.220328,2.97456 c 0.121181,1.636008 0.317395,3.55056 0.436032,4.25456 0.196761,1.167597 0.238877,1.055576 0.479697,-1.275661 0.17699,-1.713381 0.15424,-2.592246 -0.069,-2.666667 z m -13.550857,2.668088 c 0.901838,-0.797773 0.82824,-1.097584 -0.382155,-1.556749 -0.176,-0.06677 -0.230609,-0.218498 -0.121353,-0.337182 0.109256,-0.118685 0.58176,-0.04123 1.050008,0.172115 0.78531,0.357811 0.924324,0.302882 1.791845,-0.708019 1.194305,-1.391696 8.891046,-16.453223 7.7552,-15.175925 -1.063895,1.196386 -5.774445,6.843473 -7.843351,9.402739 -1.368208,1.692494 -3.132208,4.347036 -3.92,5.898983 -0.787792,1.551947 -1.432349,2.883947 -1.432349,2.96 0,0.07605 0.49597,0.138278 1.102155,0.138278 0.719006,0 1.414279,-0.276107 2,-0.79424 z m 2.520202,-0.01866 c -0.841611,-0.438879 -0.987923,-0.438677 -1.428572,0.002 -0.441238,0.441238 -0.346332,0.490729 0.937643,0.488957 l 1.428572,-0.002 z m -19.594343,-5.1071 c 0.105518,-2.288 0.269656,-4.736 0.36475,-5.44 0.165105,-1.222307 0.154553,-1.241643 -0.234109,-0.428982 -0.223854,0.46806 -0.633412,1.11606 -0.910129,1.44 -0.563053,0.65914 -0.990089,1.71448 -1.695912,4.191134 -0.445106,1.561829 -0.436184,1.778671 0.124727,3.031507 l 0.604125,1.349356 0.409449,-0.951508 0.409449,-0.951507 0.112213,1.44 c 0.199481,2.5599 0.61392,0.689573 0.815437,-3.68 z m 38.101588,4.282753 c -0.64115,-0.712287 -3.14241,-2.522753 -3.48534,-2.522753 -0.19978,0 3.71902,3.143037 3.96534,3.180362 0.0713,0.0108 -0.14472,-0.285123 -0.48,-0.657609 z M 65.827034,66.880002 c 0.111302,-0.264 0.444866,-1.452 0.741254,-2.64 l 0.538886,-2.16 h -0.71009 c -0.60218,0 -0.741016,0.225621 -0.913586,1.484663 -0.111923,0.816564 -0.180451,2.508564 -0.152284,3.76 0.02817,1.251435 0.105716,1.771337 0.172332,1.155337 0.06662,-0.616 0.212185,-1.336 0.323488,-1.6 z M 103.36,68.375783 c 0,-0.785504 -1.33497,-2.29414 -1.70374,-1.925374 -0.39102,0.391021 -0.22606,1.488367 0.31334,2.084396 0.73139,0.808181 1.3904,0.732809 1.3904,-0.159022 z M 58.457042,61.850442 c 0.998328,-1.454709 1.7539,-2.700277 1.679051,-2.76793 -0.07485,-0.06765 -0.427365,-0.21221 -0.783365,-0.321239 -0.664199,-0.203418 -0.601735,-0.300256 -5.030387,7.798729 -0.556758,1.018182 -0.479161,0.975244 0.853563,-0.472317 0.806299,-0.875775 2.282811,-2.782534 3.281138,-4.237243 z m 44.833918,-1.37044 c -0.0745,-0.917258 -0.22077,-0.598662 -0.80809,1.76 -0.67829,2.724037 -0.68695,2.902485 -0.16,3.2952 0.51092,0.380758 0.57795,0.234762 0.80809,-1.76 0.13803,-1.19636 0.21003,-2.6792 0.16,-3.2952 z m -4.628807,0.96 c 0.09865,-1.32 0.275925,-3.048 0.393943,-3.84 l 0.21458,-1.44 -1.601404,2.4 c -0.880772,1.32 -1.904673,2.674318 -2.275336,3.009596 -0.820319,0.742008 -0.844806,1.015589 -0.113933,1.272957 1.26448,0.445273 3.122734,1.046467 3.161393,1.022794 0.02277,-0.01394 0.122106,-1.105347 0.220757,-2.425347 z M 62.908165,60.640216 c 0.576715,-0.439882 1.140675,-1.089973 1.253244,-1.444646 0.112569,-0.354674 0.34812,-0.556205 0.523447,-0.447847 0.175328,0.108358 0.233693,0.41874 0.129702,0.689737 -0.103991,0.270996 0.03351,0.832431 0.305562,1.247631 0.688821,1.051275 1.91939,0.992199 2.605609,-0.125089 0.297264,-0.484 0.965682,-1.250246 1.485373,-1.702768 0.80891,-0.70436 0.912739,-0.96916 0.72147,-1.84 -0.226865,-1.032909 -0.397274,-1.135337 -1.709513,-1.027532 -0.405318,0.0333 -0.941059,-0.10886 -1.190535,-0.315907 -0.254925,-0.211568 -1.663713,-0.40425 -3.2165,-0.439925 l -2.762906,-0.06348 -0.802048,1.051539 c -0.914708,1.199245 -0.790466,2.210163 0.23282,1.894375 0.349862,-0.107968 0.924112,-0.2851 1.276112,-0.393627 0.899524,-0.277338 0.797375,0.340599 -0.16,0.967896 -0.599436,0.392765 -0.8,0.80312 -0.8,1.636803 0,1.369601 0.604974,1.459375 2.108163,0.312837 z m 8.134282,-4.8991 c 0.0013,-0.297613 0.284789,-1.46967 0.629877,-2.60457 0.345088,-1.134901 0.581778,-2.109111 0.525977,-2.164912 -0.0558,-0.0558 -0.563063,0.09263 -1.127248,0.329857 -0.89691,0.377122 -0.963302,0.483176 -0.528422,0.844094 0.682169,0.56615 0.623306,1.49876 -0.164419,2.605018 -0.363985,0.511169 -0.507985,0.929399 -0.32,0.929399 0.187985,0 0.34179,0.224498 0.34179,0.498885 0,0.274387 0.144,0.409889 0.32,0.301115 0.176,-0.108774 0.3211,-0.441273 0.322445,-0.738886 z m -1.294911,-1.401454 c 1.207575,-1.29618 0.643531,-2.49966 -1.171534,-2.49966 -0.5808,0 -1.056,-0.144 -1.056,-0.32 0,-0.176 0.511151,-0.32 1.135891,-0.32 1.718262,0 4.304109,-1.471683 4.304109,-2.449597 0,-0.849616 -2.094651,-0.502954 -3.2,0.529596 -1.400779,1.308524 -1.748143,1.206724 -0.77509,-0.227151 1.013259,-1.493121 0.931033,-2.834772 -0.226455,-3.694979 -1.077155,-0.800506 -2.038066,-0.516245 -2.721327,0.805036 -0.404814,0.782823 -0.436165,1.125149 -0.14565,1.590338 0.516881,0.827657 0.16508,1.218068 -0.904792,1.004094 -1.163798,-0.23276 -2.209627,0.330922 -2.620883,1.412607 -0.437556,1.15086 0.376956,1.777453 2.034197,1.564879 1.269719,-0.162866 1.647617,0.23998 0.551475,0.587882 -0.784576,0.249015 -1.726991,1.59914 -1.440172,2.063222 0.30992,0.501461 1.95408,0.401852 2.408697,-0.145927 0.54016,-0.650853 0.853116,-0.603288 1.05272,0.16 0.235088,0.898981 1.915107,0.862448 2.774814,-0.06034 z m -6.796248,-0.924137 c 0.446567,-1.183092 0.08615,-1.202086 -0.772491,-0.04071 -0.589998,0.798015 -0.603098,0.899216 -0.121096,0.935524 0.324077,0.02441 0.681847,-0.333848 0.893587,-0.894812 z M 46.662029,130.44916 c -2.923266,-4.52261 -6.477834,-7.34017 -9.780834,-7.75285 -1.410306,-0.1762 -1.822762,-0.10944 -2.380301,0.38528 -0.50308,0.4464 -0.635779,0.47648 -0.522375,0.11841 0.274329,-0.86617 1.428735,-1.18817 3.333199,-0.92973 3.300412,0.44787 7.453013,3.86337 10.027567,8.24762 1.534458,2.61306 1.022587,2.56111 -0.677256,-0.0687 z M 29.005903,114.0738 c 0.348107,-3.80921 3.195068,-19.788392 3.804541,-21.353797 0.339215,-0.87126 -0.0546,-0.67267 -1.530077,0.771567 -3.670114,3.592416 -8.644147,6.459081 -13.040366,7.5155 C 16.139843,101.51175 14.4,101.56291 14.4,101.12 c 0,-0.176 0.519215,-0.32 1.15381,-0.32 4.30996,0 10.294733,-3.058704 15.367915,-7.854255 2.384616,-2.254117 3.005439,-2.699229 2.992792,-2.145742 -0.003,0.132 -0.29502,1.32 -0.648898,2.64 -0.353877,1.32 -0.844889,3.552 -1.091136,4.96 -0.246247,1.408 -0.962243,5.243497 -1.591102,8.523337 -0.628859,3.27983 -1.145585,6.44783 -1.14828,7.04 -0.0027,0.59216 -0.139718,1.28987 -0.304496,1.55046 -0.195576,0.3093 -0.238873,-0.19067 -0.124702,-1.44 z M 11.28,100.90807 c -0.774002,-0.31231 -0.389345,-0.72994 0.507171,-0.55063 1.090491,0.2181 4.805122,-1.008859 7.005864,-2.314063 0.839831,-0.498082 1.659006,-0.865589 1.820389,-0.816682 0.412374,0.124972 4.025883,-3.489237 6.345461,-6.346692 1.764856,-2.174101 3.327961,-5.074626 6.639296,-12.320001 0.321748,-0.704 1.114935,-2.432 1.762639,-3.84 1.245817,-2.708196 5.019391,-13.006457 4.833903,-13.191945 -0.06007,-0.06007 -1.316458,0.722447 -2.791971,1.73893 -6.509508,4.484405 -14.769336,14.628521 -16.113617,19.789566 -0.604497,2.320819 -0.608525,2.947019 -0.02614,4.06345 0.252478,0.484 0.339999,0.88 0.19449,0.88 -0.145509,0 -0.484231,-0.468 -0.752716,-1.04 -0.848925,-1.808616 -0.163329,-5.083436 1.741046,-8.316285 0.491259,-0.833957 1.213498,-2.273957 1.604975,-3.2 0.391478,-0.926044 1.055959,-2.239482 1.476625,-2.918751 0.850149,-1.372775 0.81457,-1.359643 -2.282042,0.842266 -1.207045,0.858294 -2.133985,1.369787 -2.059867,1.136652 0.153055,-0.481429 6.555748,-5.063883 7.075355,-5.063883 0.186383,0 -0.02898,0.396 -0.478577,0.88 -0.449601,0.484 -1.213619,1.6 -1.697819,2.48 l -0.880362,1.6 0.917949,-1.116386 c 4.30178,-5.231712 7.79581,-8.513087 12.427074,-11.670728 1.226018,-0.835912 2.786256,-2.152775 3.467196,-2.926363 0.680939,-0.773588 1.459465,-1.406523 1.730057,-1.406523 0.370421,0 0.405644,0.104036 0.142553,0.421042 -0.506998,0.610896 -6.605801,14.279896 -7.265064,16.282893 -0.307031,0.932836 -0.664097,1.768065 -0.793478,1.856065 -0.274726,0.186857 -4.165085,8.320001 -3.979739,8.320001 0.525006,0 7.079715,-12.198733 7.823481,-14.560001 0.465496,-1.477827 0.965869,-2.16471 0.965869,-1.325886 0,0.935648 -2.176901,5.914127 -4.188794,9.579592 -2.325503,4.23683 -4.215809,7.174457 -7.069134,10.985779 -3.742236,4.998679 -9.665329,10.627282 -10.746653,10.212339 -0.257167,-0.09868 -0.927613,0.104893 -1.48988,0.452393 -0.562268,0.3475 -1.872287,0.853211 -2.911154,1.123801 -1.975528,0.51456 -2.297564,0.54509 -2.954386,0.28005 z m 8.720001,-2.988067 c 0.318555,-0.352 0.507192,-0.64 0.419192,-0.64 -0.088,0 -0.420637,0.288 -0.739192,0.64 -0.318556,0.352 -0.507192,0.64 -0.419192,0.64 0.088,0 0.420636,-0.288 0.739192,-0.64 z M 41.705459,60.724989 c 0.176274,-0.699446 0.166361,-0.703103 -0.281374,-0.103826 -0.513972,0.687936 -0.620648,1.273372 -0.18271,1.002711 0.154756,-0.09564 0.363594,-0.500143 0.464084,-0.898885 z M 18.760698,81.520002 c -0.249732,-0.396 -0.551024,-1.044845 -0.669538,-1.441879 -0.281114,-0.941758 0.585699,-3.901465 1.850397,-6.318121 1.340108,-2.560755 5.940548,-7.127236 9.818444,-9.745967 1.672,-1.129097 4.54795,-3.485055 6.391001,-5.235462 1.843051,-1.750407 4.471077,-4.134583 5.840058,-5.298168 2.076391,-1.764857 2.576124,-2.381275 3.014209,-3.718006 1.896581,-5.787046 7.623064,-14.567568 12.575599,-19.282398 0.970585,-0.924 1.616747,-1.68 1.435917,-1.68 -0.180831,0 -0.533762,0.18 -0.784293,0.4 -1.024463,0.89962 0.932444,-1.303574 2.56751,-2.890645 3.901663,-3.787134 8.107547,-5.801131 13.906892,-6.659346 1.767209,-0.26152 4.221108,-0.629113 5.453108,-0.816873 2.855676,-0.435213 11.32266,-0.149238 13.440001,0.45394 1.932049,0.550392 5.029798,2.117146 4.227252,2.138024 -0.315012,0.0082 -1.155594,-0.282446 -1.867961,-0.645868 -2.261818,-1.153894 -8.089465,-1.900826 -12.439291,-1.594349 -1.046208,0.07371 -1.067292,0.09579 -0.320001,0.335117 0.55563,0.177943 0.01801,0.267642 -1.76,0.293647 -9.919684,0.145087 -15.011267,1.930366 -20.711291,7.262071 -0.863814,0.807997 -1.523148,1.51651 -1.465185,1.574472 0.05796,0.05796 0.879719,-0.537639 1.826125,-1.32356 2.877844,-2.389837 7.303267,-4.623288 12.291792,-6.203501 2.562607,-0.811755 1.378099,-0.02452 -1.927929,1.281323 -7.252884,2.864803 -10.610528,5.154624 -15.688912,10.699409 -3.228484,3.524988 -7.749281,10.578712 -9.854712,15.376139 l -0.842624,1.920001 1.130994,-1.087873 c 0.622047,-0.59833 1.76853,-2.18233 2.547742,-3.52 2.740514,-4.704636 9.247099,-12.8181 12.258105,-15.285393 1.854586,-1.519694 2.243694,-1.098236 0.420291,0.455232 -2.508379,2.137041 -6.630654,6.882483 -9.691222,11.156251 -1.713768,2.393101 -1.435938,2.838448 0.329328,0.527893 0.826376,-1.081644 1.626993,-1.889685 1.779149,-1.795647 0.152156,0.09404 0.08019,0.337153 -0.159915,0.540256 -0.240109,0.203104 -1.076362,1.23328 -1.85834,2.28928 -0.781979,1.056 -1.496181,1.992 -1.587116,2.08 -0.09094,0.088 -1.0273,1.311643 -2.080809,2.719207 -3.622232,4.83956 -4.426647,5.795533 -4.234392,5.032187 0.130925,-0.519839 -0.598395,0.01153 -2.545348,1.854479 -1.500869,1.420698 -2.892401,2.521044 -3.092292,2.445212 -0.199892,-0.07583 -1.51544,0.977673 -2.92344,2.34112 -1.408,1.363447 -3.928,3.442686 -5.6,4.62053 -5.486311,3.864845 -9.039714,7.877392 -10.549482,11.912608 -0.776587,2.075614 -0.820983,3.336798 -0.162301,4.61055 0.573136,1.108322 0.369964,1.266685 -0.28752,0.224108 z m 26.839303,-30.32 c 0.318556,-0.352 0.507192,-0.64 0.419192,-0.64 -0.088,0 -0.420636,0.288 -0.739192,0.64 -0.318555,0.352 -0.507192,0.64 -0.419192,0.64 0.088,0 0.420637,-0.288 0.739192,-0.64 z m 88.262069,5.534249 c -0.44115,-2.317973 -2.32987,-6.503459 -4.21632,-9.343563 -1.47901,-2.226683 -1.4965,-2.270687 -0.90281,-2.270687 0.23261,0 1.04368,1.084931 1.80237,2.410958 0.7587,1.326027 1.44148,2.348927 1.51729,2.273113 0.16716,-0.167159 -2.30246,-5.144517 -3.14248,-6.333469 -0.6816,-0.964724 -0.74061,-1.230602 -0.27314,-1.230602 0.5511,0 2.79927,3.768553 3.79041,6.35378 1.11856,2.917607 2.04093,7.242339 1.90233,8.919567 -0.0921,1.114237 -0.12866,1.054566 -0.47765,-0.779097 z m -17.8532,-25.27824 c -1.89505,-1.785504 -4.74234,-3.345711 -7.13625,-3.910401 l -1.19262,-0.28132 1.23072,-0.03214 c 1.85445,-0.04843 5.58261,1.851036 7.54401,3.843622 1.34042,1.361728 1.96959,2.254454 1.54527,2.192566 -0.044,-0.0064 -0.94001,-0.821962 -1.99113,-1.812322 z"
       id="path1" />
  </g>
</svg>
